<svg viewBox="0 0 80 18" fill="none" xmlns="http://www.w3.org/2000/svg">
<path d="M71.6163 9.0901V7.78865H72.5237V6.26696H73.4114V4.52503H74.2596V2.8832H75.1473V0.941046H76.2914V0H79.0531V0.961069H80V17.0189H79.0531V18H76.5676V17.0189H75.601V10.792H74.9303V11.9333H74.3385V13.1546H73.6678V14.416H72.8985V15.7575H72.0503V16.6785H70.1565V15.7575H69.328V14.416H68.5587V13.1546H67.888V11.9333H67.2765V10.792H66.6058V17.0189H65.6589V18H63.1537V17.0189H62.2068V0.961069H63.1537V0H65.9154V0.941046H67.0595V2.8832H67.9472V4.52503H68.7954V6.26696H69.6831V7.78865H70.5905V9.0901H71.6163Z" fill="currentColor"/>
<path d="M55.1364 8.7297V6.94772H54.1107V5.52614H53.1441V4.28476H51.8027V5.52614H50.8361V6.94772H49.8103V8.7297H55.1364ZM55.1364 12.8142H49.8103V17.079H48.8437V18H46.1609V17.079H45.2141V5.26585H46.2399V3.62403H47.2656V2.20245H48.2717V1.04116H49.2383V0H55.6888V1.04116H56.6356V2.20245H57.6417V3.62403H58.6872V5.26585H59.7327V17.079H58.7661V18H56.0833V17.079H55.1364V12.8142Z" fill="currentColor"/>
<path d="M43.0794 0V0.921024H43.9869V3.38376H43.0794V4.30478H39.4301V17.079H38.5227V18H35.6032V17.079H34.6957V4.30478H30.9872V3.38376H30.0798V0.921024H30.9872V0H43.0794Z" fill="currentColor"/>
<path d="M27.7527 3.26363H28.8771V14.7364H27.7527V15.9577H26.6677V17.0189H25.6617V18H18.1657V17.0189H17.1596V15.9577H16.0747V14.7364H14.9503V3.26363H16.0747V2.04227H17.1596V0.961069H18.1657V0H25.6617V0.961069H26.6677V2.04227H27.7527V3.26363ZM20.5328 5.22581H19.5071V12.7742H20.5328V13.8554H23.2945V12.7742H24.3203V5.22581H23.2945V4.12458H20.5328V5.22581Z" fill="currentColor"/>
<path d="M5.89818 5.34594H4.75405V12.6541H5.89818V13.7353H12.2698V14.7164H13.3153V16.9989H12.2698V18H3.51129V17.0189H2.26853V15.8977H1.10468V14.6963H0V3.30367H1.10468V2.08231H2.26853V0.961069H3.51129V0H12.2698V1.00111H13.3153V3.28365H12.2698V4.24472H5.89818V5.34594Z" fill="currentColor"/>
</svg>
