<svg viewBox="0 0 16 16" fill="none" xmlns="http://www.w3.org/2000/svg">
<rect x="5" y="8" width="1" height="6" fill="#B01204"/>
<rect x="2" y="6" width="1" height="2" fill="#B01204"/>
<rect x="3" y="6" width="1" height="2" fill="#FF9E95"/>
<rect width="1" height="2" transform="matrix(-1 0 0 1 13 6)" fill="#FF3E2C"/>
<rect x="4" y="5" width="1" height="3" fill="#FF3E2C"/>
<rect width="1" height="3" transform="matrix(-1 0 0 1 12 5)" fill="#FF3E2C"/>
<rect x="5" y="4" width="1" height="4" fill="#FF3E2C"/>
<rect width="1" height="4" transform="matrix(-1 0 0 1 11 4)" fill="#FF3E2C"/>
<rect x="3" y="8" width="3" height="1" fill="#B01204"/>
<rect x="10" y="8" width="3" height="1" fill="#B01204"/>
<rect x="13" y="6" width="1" height="2" fill="#B01204"/>
<rect x="3" y="5" width="1" height="1" fill="#B01204"/>
<rect x="4" y="4" width="1" height="1" fill="#B01204"/>
<rect x="5" y="3" width="1" height="1" fill="#B01204"/>
<rect x="6" y="2" width="1" height="1" fill="#B01204"/>
<rect width="1" height="1" transform="matrix(-1 0 0 1 13 5)" fill="#B01204"/>
<rect width="1" height="1" transform="matrix(-1 0 0 1 12 4)" fill="#B01204"/>
<rect width="1" height="1" transform="matrix(-1 0 0 1 11 3)" fill="#B01204"/>
<rect width="1" height="1" transform="matrix(-1 0 0 1 10 2)" fill="#B01204"/>
<rect x="7" y="1" width="2" height="1" fill="#B01204"/>
<rect x="7" y="2" width="2" height="1" fill="#FF3E2C"/>
<rect x="10" y="8" width="1" height="6" fill="#B01204"/>
<rect x="6" y="14" width="4" height="1" fill="#B01204"/>
<rect x="6" y="3" width="4" height="11" fill="#FF3E2C"/>
<rect x="4" y="5" width="1" height="1" fill="#FF9E95"/>
<rect x="5" y="4" width="1" height="1" fill="#FF9E95"/>
<rect x="6" y="3" width="1" height="1" fill="#FF9E95"/>
<rect x="7" y="2" width="1" height="1" fill="#FF9E95"/>
<rect x="6" y="8" width="1" height="6" fill="#FF9E95"/>
</svg>
