<svg viewBox="0 0 16 16" fill="none" xmlns="http://www.w3.org/2000/svg">
<rect width="6" height="8" transform="matrix(-1 0 0 1 14 3)" fill="#FFE0DD"/>
<rect width="6" height="8" transform="matrix(-1 0 0 1 8 3)" fill="#FF9E95"/>
<rect x="8" y="3" width="1" height="1" fill="#B01204"/>
<rect width="1" height="1" transform="matrix(-1 0 0 1 8 3)" fill="#B01204"/>
<rect width="4" height="1" transform="matrix(-1 0 0 1 10 12)" fill="#FF3E2C"/>
<rect width="1" height="7" transform="matrix(-1 0 0 1 2 3)" fill="#B01204"/>
<rect x="9" y="2" width="5" height="1" fill="#B01204"/>
<rect width="5" height="1" transform="matrix(-1 0 0 1 7 2)" fill="#B01204"/>
<rect x="8" y="10" width="6" height="1" fill="#FF9E95"/>
<rect x="9" y="8" width="4" height="1" fill="#FF3E2C"/>
<rect x="3" y="8" width="4" height="1" fill="#D51200"/>
<rect x="9" y="6" width="4" height="1" fill="#FF3E2C"/>
<rect x="3" y="6" width="4" height="1" fill="#D51200"/>
<rect x="9" y="4" width="4" height="1" fill="#FF3E2C"/>
<rect x="3" y="4" width="4" height="1" fill="#D51200"/>
<rect width="6" height="1" transform="matrix(-1 0 0 1 7 11)" fill="#FF3E2C"/>
<rect width="6" height="1" transform="matrix(-1 0 0 1 15 11)" fill="#FF3E2C"/>
<rect width="4" height="1" transform="matrix(-1 0 0 1 14 12)" fill="#FF3E2C"/>
<rect width="4" height="1" transform="matrix(-1 0 0 1 6 12)" fill="#FF3E2C"/>
<rect width="2" height="1" transform="matrix(-1 0 0 1 9 11)" fill="#FF9E95"/>
<rect width="6" height="1" transform="matrix(-1 0 0 1 8 10)" fill="#FFC6C1"/>
<rect x="1" y="10" width="1" height="2" fill="#D51200"/>
<rect x="14" y="10" width="1" height="2" fill="#D51200"/>
<rect x="10" y="12" width="4" height="1" fill="#D51200"/>
<rect x="2" y="12" width="4" height="1" fill="#D51200"/>
<rect x="14" y="3" width="1" height="7" fill="#B01204"/>
</svg>
