<svg viewBox="0 0 16 16" fill="none" xmlns="http://www.w3.org/2000/svg">
<rect x="2" y="14" width="11" height="1" fill="#3C25AE"/>
<rect x="3" y="5" width="9" height="1" fill="#3C25AE"/>
<rect x="2" y="12" width="11" height="1" fill="#3C25AE"/>
<rect x="2" y="13" width="11" height="1" fill="#6051FF"/>
<rect x="4" y="11" width="7" height="1" fill="#6051FF"/>
<rect x="13" y="12" width="1" height="2" fill="#3C25AE"/>
<rect x="1" y="12" width="1" height="2" fill="#3C25AE"/>
<rect x="2" y="6" width="1" height="5" fill="#3C25AE"/>
<rect x="4" y="2" width="1" height="2" fill="#5636F5"/>
<rect x="10" y="2" width="1" height="2" fill="#5636F5"/>
<rect x="6" y="1" width="1" height="2" fill="#5636F5"/>
<rect x="3" y="1" width="1" height="1" fill="#6051FF"/>
<rect x="9" y="1" width="1" height="1" fill="#6051FF"/>
<rect x="7" y="3" width="1" height="1" fill="#6051FF"/>
<rect x="3" y="11" width="1" height="1" fill="#3C25AE"/>
<rect x="11" y="11" width="1" height="1" fill="#3C25AE"/>
<rect x="12" y="6" width="1" height="1" fill="#5636F5"/>
<rect x="14" y="7" width="1" height="3" fill="#5636F5"/>
<rect x="13" y="10" width="1" height="1" fill="#5636F5"/>
<rect x="13" y="6" width="1" height="1" fill="#5636F5"/>
<rect x="3" y="6" width="9" height="5" fill="#6051FF"/>
<rect x="3" y="12" width="9" height="1" fill="#5636F5"/>
<rect x="12" y="7" width="1" height="4" fill="#3C25AE"/>
<rect x="3" y="6" width="1" height="5" fill="#7775FF"/>
<rect x="4" y="11" width="1" height="1" fill="#7775FF"/>
<rect x="2" y="13" width="2" height="1" fill="#7775FF"/>
</svg>
