<svg viewBox="0 0 16 11" fill="none" xmlns="http://www.w3.org/2000/svg">
<path d="M10.6666 0.888794V1.77768H5.33324V0.888794H1.77768V1.77768H0.888794V8.88879H1.77768V9.77768H4.44435V7.99991H5.33324V7.11102H6.22213V6.22213H9.77768V7.11102H10.6666V7.99991H11.5555V9.77768H14.2221V8.88879H15.111V1.77768H14.2221V0.888794H10.6666Z" fill="white"/>
<path d="M5.33333 7.1111H6.22222V7.99999H5.33333V7.1111Z" fill="black"/>
<path d="M9.77778 7.1111H10.6667V7.99999H9.77778V7.1111Z" fill="black"/>
<path d="M1.77778 3.55556H2.66667V4.44444H1.77778V3.55556Z" fill="black"/>
<path d="M5.33333 7.1111H6.22222V7.99999H5.33333V7.1111Z" fill="black"/>
<path d="M0.888889 0.888889H1.77778V1.77778H0.888889V0.888889Z" fill="black"/>
<path d="M14.2222 0.888889H15.1111V1.77778H14.2222V0.888889Z" fill="black"/>
<path d="M9.77778 7.1111H10.6667V7.99999H9.77778V7.1111Z" fill="black"/>
<path d="M12.4444 4.44444H13.3333V5.33333H12.4444V4.44444Z" fill="black"/>
<path d="M13.3333 3.55556H14.2222V4.44444H13.3333V3.55556Z" fill="black"/>
<path d="M14.2222 8.88889H15.1111V9.77778H14.2222V8.88889Z" fill="black"/>
<path d="M0.888889 8.88889H1.77778V9.77778H0.888889V8.88889Z" fill="black"/>
<path d="M2.66667 2.66667H3.55556V3.55556H2.66667V2.66667Z" fill="black"/>
<path d="M3.55556 3.55556H4.44444V4.44444H3.55556V3.55556Z" fill="black"/>
<path d="M2.66667 4.44444H3.55556V5.33333H2.66667V4.44444Z" fill="black"/>
<path d="M11.5556 3.55556H12.4444L12.4444 4.44444L11.5556 4.44445V3.55556Z" fill="black"/>
<path d="M12.4444 2.66667H13.3333L13.3333 3.55556L12.4444 3.55556L12.4444 2.66667Z" fill="black"/>
<path d="M6.22222 6.22222V7.1111H9.77778L9.77778 6.22222H6.22222Z" fill="black"/>
<path d="M4.44444 9.77777L5.33334 9.77778L5.33333 7.99999L4.44444 8L4.44444 9.77777Z" fill="black"/>
<path d="M4.44444 10.6667V9.77777L1.77778 9.77778V10.6667L4.44444 10.6667Z" fill="black"/>
<path d="M0.888889 1.77778H0V8.88889H0.888889V1.77778Z" fill="black"/>
<path d="M1.77778 0V0.888889H5.33333V0H1.77778Z" fill="black"/>
<path d="M10.6667 1.77778V0.888889H5.33333V1.77778H10.6667Z" fill="black"/>
<path d="M14.2222 0.888889V0H10.6667V0.888889H14.2222Z" fill="black"/>
<path d="M16 1.77778H15.1111V8.88889H16V1.77778Z" fill="black"/>
<path d="M11.5556 9.77778L11.5556 10.6667L14.2222 10.6667V9.77778L11.5556 9.77778Z" fill="black"/>
<path d="M10.6667 9.77778H11.5556V8L10.6667 7.99999L10.6667 9.77778Z" fill="black"/>
</svg>
