<svg viewBox="0 0 98 64" fill="none" xmlns="http://www.w3.org/2000/svg">
<path d="M12 44H16V48H12V44Z" fill="#B01204"/>
<path d="M16 44H20V48H16V44Z" fill="#B01204"/>
<path d="M20 44H24V48H20V44Z" fill="#B01204"/>
<path d="M24 44H28V48H24V44Z" fill="#B01204"/>
<path d="M28 44H32V48H28V44Z" fill="#B01204"/>
<path d="M32 44H36V48H32V44Z" fill="#B01204"/>
<path d="M36 44H40V48H36V44Z" fill="#B01204"/>
<path d="M40 44H44V48H40V44Z" fill="#B01204"/>
<path d="M44 44H48V48H44V44Z" fill="#B01204"/>
<path d="M48 44H52V48H48V44Z" fill="#B01204"/>
<path d="M8 44H12V48H8V44Z" fill="#B01204"/>
<path d="M52 44H56V48H52V44Z" fill="#B01204"/>
<path d="M4 40H8V44H4V40Z" fill="#B01204"/>
<path d="M4 36H8V40H4V36Z" fill="#B01204"/>
<path d="M4 32H8V36H4V32Z" fill="#B01204"/>
<path d="M4 28H8V32H4V28Z" fill="#B01204"/>
<path d="M4 24H8V28H4V24Z" fill="#B01204"/>
<path d="M4 20H8V24H4V20Z" fill="#B01204"/>
<path d="M4 16H8V20H4V16Z" fill="#B01204"/>
<path d="M4 12H8V16H4V12Z" fill="#B01204"/>
<path d="M4 8H8V12H4V8Z" fill="#B01204"/>
<path d="M8 4H12V8H8V4Z" fill="#B01204"/>
<path d="M12 4H16V8H12V4Z" fill="#B01204"/>
<path d="M16 4H20V8H16V4Z" fill="#B01204"/>
<path d="M20 4H24V8H20V4Z" fill="#B01204"/>
<path d="M24 4H28V8H24V4Z" fill="#B01204"/>
<path d="M28 4H32V8H28V4Z" fill="#B01204"/>
<path d="M32 4H36V8H32V4Z" fill="#B01204"/>
<path d="M36 4H40V8H36V4Z" fill="#B01204"/>
<path d="M40 4H44V8H40V4Z" fill="#B01204"/>
<path d="M44 4H48V8H44V4Z" fill="#B01204"/>
<path d="M48 4H52V8H48V4Z" fill="#B01204"/>
<path d="M52 4H56V8H52V4Z" fill="#B01204"/>
<path d="M56 8H60V12H56V8Z" fill="#B01204"/>
<path d="M56 12H60V16H56V12Z" fill="#B01204"/>
<path d="M56 16H60V20H56V16Z" fill="#B01204"/>
<path d="M56 20H60V24H56V20Z" fill="#B01204"/>
<path d="M56 24H60V28H56V24Z" fill="#B01204"/>
<path d="M56 28H60V32H56V28Z" fill="#B01204"/>
<path d="M56 32H60V36H56V32Z" fill="#B01204"/>
<path d="M56 36H60V40H56V36Z" fill="#B01204"/>
<path d="M56 40H60V44H56V40Z" fill="#B01204"/>
<path d="M12 12H16V16H12V12Z" fill="#B01204"/>
<path d="M12 16H16V20H12V16Z" fill="#B01204"/>
<path d="M12 20H16V24H12V20Z" fill="#B01204"/>
<path d="M12 24H16V28H12V24Z" fill="#B01204"/>
<path d="M12 28H16V32H12V28Z" fill="#B01204"/>
<path d="M12 32H16V36H12V32Z" fill="#B01204"/>
<path d="M12 36H16V40H12V36Z" fill="#B01204"/>
<path d="M16 12H20V16H16V12Z" fill="#B01204"/>
<path d="M20 12H24V16H20V12Z" fill="#B01204"/>
<path d="M24 12H28V16H24V12Z" fill="#B01204"/>
<path d="M28 12H32V16H28V12Z" fill="#B01204"/>
<path d="M32 12H36V16H32V12Z" fill="#B01204"/>
<path d="M36 12H40V16H36V12Z" fill="#B01204"/>
<path d="M40 12H44V16H40V12Z" fill="#B01204"/>
<path d="M44 12H48V16H44V12Z" fill="#B01204"/>
<path d="M48 12H52V16H48V12Z" fill="#B01204"/>
<path d="M48 16H52V20H48V16Z" fill="#B01204"/>
<path d="M48 20H52V24H48V20Z" fill="#B01204"/>
<path d="M48 24H52V28H48V24Z" fill="#B01204"/>
<path d="M48 28H52V32H48V28Z" fill="#B01204"/>
<path d="M48 32H52V36H48V32Z" fill="#B01204"/>
<path d="M48 36H52V40H48V36Z" fill="#B01204"/>
<path d="M16 36H20V40H16V36Z" fill="#B01204"/>
<path d="M20 36H24V40H20V36Z" fill="#B01204"/>
<path d="M24 36H28V40H24V36Z" fill="#B01204"/>
<path d="M28 36H32V40H28V36Z" fill="#B01204"/>
<path d="M32 36H36V40H32V36Z" fill="#B01204"/>
<path d="M36 36H40V40H36V36Z" fill="#B01204"/>
<path d="M40 36H44V40H40V36Z" fill="#B01204"/>
<path d="M44 36H48V40H44V36Z" fill="#B01204"/>
<path d="M16 32H20V36H16V32Z" fill="#FFC6C1"/>
<path d="M20 32H24V36H20V32Z" fill="#FFC6C1"/>
<path d="M24 32H28V36H24V32Z" fill="#FFC6C1"/>
<path d="M28 32H32V36H28V32Z" fill="#FFC6C1"/>
<path d="M32 32H36V36H32V32Z" fill="#FFC6C1"/>
<path d="M36 32H40V36H36V32Z" fill="#FFC6C1"/>
<path d="M40 32H44V36H40V32Z" fill="#FFC6C1"/>
<path d="M44 32H48V36H44V32Z" fill="#FFC6C1"/>
<path d="M16 28H20V32H16V28Z" fill="#FFC6C1"/>
<path d="M20 28H24V32H20V28Z" fill="#FFC6C1"/>
<path d="M16 16H20V20H16V16Z" fill="#FFE0DD"/>
<path d="M16 20H20V24H16V20Z" fill="#FFE0DD"/>
<path d="M16 24H20V28H16V24Z" fill="#FF9E95"/>
<path d="M20 24H24V28H20V24Z" fill="#FF9E95"/>
<path d="M20 20H24V24H20V20Z" fill="#FFE0DD"/>
<path d="M20 16H24V20H20V16Z" fill="#FFE0DD"/>
<path d="M24 16H28V20H24V16Z" fill="#FF9E95"/>
<path d="M28 16H32V20H28V16Z" fill="#FF9E95"/>
<path d="M32 16H36V20H32V16Z" fill="#FF9E95"/>
<path d="M36 16H40V20H36V16Z" fill="#FF9E95"/>
<path d="M40 16H44V20H40V16Z" fill="#FF9E95"/>
<path d="M44 16H48V20H44V16Z" fill="#FF9E95"/>
<path d="M44 20H48V24H44V20Z" fill="#FF9E95"/>
<path d="M44 24H48V28H44V24Z" fill="#FF9E95"/>
<path d="M44 28H48V32H44V28Z" fill="#FF9E95"/>
<path d="M40 28H44V32H40V28Z" fill="#B01204"/>
<path d="M36 28H40V32H36V28Z" fill="#FF9E95"/>
<path d="M32 28H36V32H32V28Z" fill="#FF9E95"/>
<path d="M28 28H32V32H28V28Z" fill="#FF9E95"/>
<path d="M24 28H28V32H24V28Z" fill="#FF9E95"/>
<path d="M24 24H28V28H24V24Z" fill="#FF9E95"/>
<path d="M24 20H28V24H24V20Z" fill="#FF9E95"/>
<path d="M28 20H32V24H28V20Z" fill="#FF9E95"/>
<path d="M32 20H36V24H32V20Z" fill="#FF9E95"/>
<path d="M36 20H40V24H36V20Z" fill="#FF9E95"/>
<path d="M40 20H44V24H40V20Z" fill="#B01204"/>
<path d="M40 24H44V28H40V24Z" fill="#FF9E95"/>
<path d="M32 24H36V28H32V24Z" fill="#FF9E95"/>
<path d="M28 24H32V28H28V24Z" fill="#FF9E95"/>
<path d="M4 48H8V52H4V48Z" fill="#B01204"/>
<path d="M56 48H60V52H56V48Z" fill="#B01204"/>
<path d="M8 56H12V60H8V56Z" fill="#B01204"/>
<path d="M12 52H16V56H12V52Z" fill="#B01204"/>
<path d="M16 56H20V60H16V56Z" fill="#B01204"/>
<path d="M20 52H24V56H20V52Z" fill="#B01204"/>
<path d="M24 56H28V60H24V56Z" fill="#B01204"/>
<path d="M28 52H32V56H28V52Z" fill="#B01204"/>
<path d="M32 56H36V60H32V56Z" fill="#B01204"/>
<path d="M36 52H40V56H36V52Z" fill="#B01204"/>
<path d="M40 56H44V60H40V56Z" fill="#B01204"/>
<path d="M44 52H48V56H44V52Z" fill="#B01204"/>
<path d="M48 56H52V60H48V56Z" fill="#B01204"/>
<path d="M16 48H20V52H16V48Z" fill="#B01204"/>
<path d="M24 48H28V52H24V48Z" fill="#B01204"/>
<path d="M32 48H36V52H32V48Z" fill="#B01204"/>
<path d="M40 48H44V52H40V48Z" fill="#B01204"/>
<path d="M48 48H52V52H48V48Z" fill="#B01204"/>
<path d="M8 48H12V52H8V48Z" fill="#B01204"/>
<path d="M52 52H56V56H52V52Z" fill="#B01204"/>
<path d="M56 56H60V60H56V56Z" fill="#B01204"/>
<path d="M4 52H8V56H4V52Z" fill="#B01204"/>
<path d="M52 48H56V52H52V48Z" fill="#B01204"/>
<path d="M56 52H60V56H56V52Z" fill="#B01204"/>
<path d="M8 8H12V12H8V8Z" fill="#FF3E2C"/>
<path d="M8 12H12V16H8V12Z" fill="#FF9E95"/>
<path d="M8 16H12V20H8V16Z" fill="#FF9E95"/>
<path d="M8 20H12V24H8V20Z" fill="#FF9E95"/>
<path d="M8 24H12V28H8V24Z" fill="#FF9E95"/>
<path d="M8 28H12V32H8V28Z" fill="#FF9E95"/>
<path d="M8 32H12V36H8V32Z" fill="#FF9E95"/>
<path d="M8 36H12V40H8V36Z" fill="#FF9E95"/>
<path d="M8 40H12V44H8V40Z" fill="#FF3E2C"/>
<path d="M12 8H16V12H12V8Z" fill="#FF3E2C"/>
<path d="M16 8H20V12H16V8Z" fill="#FF3E2C"/>
<path d="M20 8H24V12H20V8Z" fill="#FF3E2C"/>
<path d="M24 8H28V12H24V8Z" fill="#FF3E2C"/>
<path d="M28 8H32V12H28V8Z" fill="#FF3E2C"/>
<path d="M32 8H36V12H32V8Z" fill="#FF3E2C"/>
<path d="M36 8H40V12H36V8Z" fill="#FF3E2C"/>
<path d="M40 8H44V12H40V8Z" fill="#FF3E2C"/>
<path d="M44 8H48V12H44V8Z" fill="#FF3E2C"/>
<path d="M48 8H52V12H48V8Z" fill="#FF3E2C"/>
<path d="M52 8H56V12H52V8Z" fill="#FF3E2C"/>
<path d="M52 12H56V16H52V12Z" fill="#FF3E2C"/>
<path d="M52 16H56V20H52V16Z" fill="#FF3E2C"/>
<path d="M52 20H56V24H52V20Z" fill="#FF3E2C"/>
<path d="M52 24H56V28H52V24Z" fill="#FF3E2C"/>
<path d="M52 28H56V32H52V28Z" fill="#FF3E2C"/>
<path d="M52 32H56V36H52V32Z" fill="#FF3E2C"/>
<path d="M52 36H56V40H52V36Z" fill="#FF3E2C"/>
<path d="M52 40H56V44H52V40Z" fill="#FF3E2C"/>
<path d="M12 40H16V44H12V40Z" fill="#FF3E2C"/>
<path d="M16 40H20V44H16V40Z" fill="#FF3E2C"/>
<path d="M20 40H24V44H20V40Z" fill="#FF3E2C"/>
<path d="M24 40H28V44H24V40Z" fill="#FF3E2C"/>
<path d="M28 40H32V44H28V40Z" fill="#FF3E2C"/>
<path d="M32 40H36V44H32V40Z" fill="#FF3E2C"/>
<path d="M36 40H40V44H36V40Z" fill="#FF3E2C"/>
<path d="M40 40H44V44H40V40Z" fill="#FF3E2C"/>
<path d="M44 40H48V44H44V40Z" fill="#FF3E2C"/>
<path d="M48 40H52V44H48V40Z" fill="#FF3E2C"/>
<path d="M36 24H40V28H36V24Z" fill="#FF9E95"/>
<path d="M12 48H16V52H12V48Z" fill="#FF9E95"/>
<path d="M8 52H12V56H8V52Z" fill="#FF9E95"/>
<path d="M4 56H8V60H4V56Z" fill="#B01204"/>
<path d="M12 56H16V60H12V56Z" fill="#B01204"/>
<path d="M16 52H20V56H16V52Z" fill="#FF3E2C"/>
<path d="M20 56H24V60H20V56Z" fill="#B01204"/>
<path d="M20 48H24V52H20V48Z" fill="#FF3E2C"/>
<path d="M24 52H28V56H24V52Z" fill="#FF3E2C"/>
<path d="M28 56H32V60H28V56Z" fill="#B01204"/>
<path d="M28 48H32V52H28V48Z" fill="#FF3E2C"/>
<path d="M32 52H36V56H32V52Z" fill="#FF3E2C"/>
<path d="M36 56H40V60H36V56Z" fill="#B01204"/>
<path d="M36 48H40V52H36V48Z" fill="#FF3E2C"/>
<path d="M40 52H44V56H40V52Z" fill="#FF3E2C"/>
<path d="M44 56H48V60H44V56Z" fill="#B01204"/>
<path d="M48 52H52V56H48V52Z" fill="#FF3E2C"/>
<path d="M44 48H48V52H44V48Z" fill="#FF3E2C"/>
<path d="M52 56H56V60H52V56Z" fill="#B01204"/>
<rect x="70" y="58" width="22" height="2" fill="#B01204"/>
<rect x="72" y="40" width="18" height="2" fill="#B01204"/>
<rect x="70" y="54" width="22" height="2" fill="#B01204"/>
<rect x="70" y="56" width="22" height="2" fill="#FD230F"/>
<rect x="74" y="52" width="14" height="2" fill="#FD230F"/>
<rect x="92" y="54" width="2" height="4" fill="#B01204"/>
<rect x="68" y="54" width="2" height="4" fill="#B01204"/>
<rect x="70" y="42" width="2" height="10" fill="#B01204"/>
<rect x="74" y="34" width="2" height="4" fill="#D51200"/>
<rect x="86" y="34" width="2" height="4" fill="#D51200"/>
<rect x="78" y="32" width="2" height="4" fill="#D51200"/>
<rect x="72" y="32" width="2" height="2" fill="#FD230F"/>
<rect x="84" y="32" width="2" height="2" fill="#FD230F"/>
<rect x="80" y="36" width="2" height="2" fill="#FD230F"/>
<rect x="72" y="52" width="2" height="2" fill="#B01204"/>
<rect x="88" y="52" width="2" height="2" fill="#B01204"/>
<rect x="90" y="42" width="2" height="2" fill="#D51200"/>
<rect x="94" y="44" width="2" height="6" fill="#D51200"/>
<rect x="92" y="50" width="2" height="2" fill="#D51200"/>
<rect x="92" y="42" width="2" height="2" fill="#D51200"/>
<rect x="72" y="42" width="18" height="10" fill="#FD230F"/>
<rect x="72" y="54" width="18" height="2" fill="#D51200"/>
<rect x="90" y="44" width="2" height="8" fill="#B01204"/>
<rect x="72" y="42" width="2" height="10" fill="#FF9E95"/>
<rect x="74" y="42" width="2" height="10" fill="#FF6759"/>
<rect x="74" y="52" width="2" height="2" fill="#FF9E95"/>
<rect x="76" y="52" width="2" height="2" fill="#FF6759"/>
<rect x="70" y="56" width="4" height="2" fill="#FF9E95"/>
<rect x="74" y="56" width="2" height="2" fill="#FF6759"/>
</svg>
