<svg viewBox="0 0 16 16" fill="none" xmlns="http://www.w3.org/2000/svg">
<rect x="3" y="2" width="10" height="12" fill="#FF6759"/>
<rect x="5" y="5" width="6" height="6" fill="#D9D9D9"/>
<rect x="5" y="5" width="6" height="6" fill="#FF3E2C"/>
<path d="M10 5H11V6H10V5Z" fill="#B01204"/>
<path d="M10 10H11V11H10V10Z" fill="#B01204"/>
<path d="M5 10H6V11H5V10Z" fill="#B01204"/>
<path d="M5 5H6V6H5V5Z" fill="#D51200"/>
<path d="M12 6H11V10H12V6Z" fill="#B01204"/>
<path d="M10 12V11H6V12H10Z" fill="#B01204"/>
<path d="M9 9H7V7H9V9Z" fill="#B01204"/>
<path d="M4 10H5V6H4V10Z" fill="#D51200"/>
<path d="M6 4V5H10V4H6Z" fill="#D51200"/>
<path d="M3 3H2V5H3V3Z" fill="#D51200"/>
<path d="M3 2V3H5V2H3Z" fill="#D51200"/>
<path d="M5 1V2H11V1H5Z" fill="#B01204"/>
<path d="M13 3V2H11V3H13Z" fill="#B01204"/>
<path d="M14 3H13V5H14V3Z" fill="#B01204"/>
<path d="M14 11H15V5H14V11Z" fill="#B01204"/>
<path d="M2 5H1V11H2V5Z" fill="#B01204"/>
<path d="M2 13H3V11H2V13Z" fill="#B01204"/>
<path d="M3 13V14H5V13H3Z" fill="#B01204"/>
<path d="M5 14V15H11V14H5Z" fill="#B01204"/>
<path d="M13 14V13H11V14H13Z" fill="#B01204"/>
<path d="M13 13H14V11H13V13Z" fill="#B01204"/>
<rect x="13" y="5" width="1" height="6" fill="#FF6759"/>
<rect x="2" y="5" width="1" height="6" fill="#FF6759"/>
<rect x="2" y="5" width="1" height="6" fill="#FF9E95"/>
<rect x="5" y="2" width="6" height="1" fill="#FF9E95"/>
<rect x="3" y="3" width="1" height="3" fill="#FF9E95"/>
<rect x="5" y="6" width="1" height="3" fill="#FF6759"/>
<rect x="4" y="3" width="2" height="1" fill="#FF9E95"/>
<rect x="6" y="5" width="3" height="1" fill="#FF6759"/>
<rect x="7" y="7" width="1" height="1" fill="#D51200"/>
</svg>
